<mxfile host="app.diagrams.net" modified="2022-12-13T08:47:17.407Z" agent="5.0 (Windows NT 10.0; Win64; x64) AppleWebKit/537.36 (KHTML, like Gecko) Chrome/108.0.0.0 Safari/537.36" etag="q1DieYJPiH6LOBX7WQ1G" version="20.6.2" type="github">
  <diagram id="C5RBs43oDa-KdzZeNtuy" name="Page-1">
    <mxGraphModel dx="1422" dy="706" grid="1" gridSize="10" guides="1" tooltips="1" connect="1" arrows="1" fold="1" page="1" pageScale="1" pageWidth="827" pageHeight="1169" math="0" shadow="0">
      <root>
        <mxCell id="WIyWlLk6GJQsqaUBKTNV-0" />
        <mxCell id="WIyWlLk6GJQsqaUBKTNV-1" parent="WIyWlLk6GJQsqaUBKTNV-0" />
        <mxCell id="nk7Bj7bGvsP4v9pZRPrX-5" value="&lt;font style=&quot;font-size: 24px;&quot;&gt;数据抽取&lt;/font&gt;" style="rounded=1;whiteSpace=wrap;html=1;absoluteArcSize=1;arcSize=14;strokeWidth=2;fillColor=#fff2cc;strokeColor=#d6b656;" parent="WIyWlLk6GJQsqaUBKTNV-1" vertex="1">
          <mxGeometry x="90" y="50" width="1080" height="50" as="geometry" />
        </mxCell>
        <mxCell id="nk7Bj7bGvsP4v9pZRPrX-6" value="&lt;font style=&quot;font-size: 24px;&quot;&gt;数据查询&lt;/font&gt;" style="rounded=1;whiteSpace=wrap;html=1;absoluteArcSize=1;arcSize=14;strokeWidth=2;" parent="WIyWlLk6GJQsqaUBKTNV-1" vertex="1">
          <mxGeometry x="270" y="1340" width="300" height="110" as="geometry" />
        </mxCell>
        <mxCell id="S0K5XQlQ_JxFuEXlwwww-0" value="&lt;font style=&quot;font-size: 18px;&quot;&gt;应用数据库&lt;/font&gt;" style="shape=datastore;whiteSpace=wrap;html=1;" vertex="1" parent="WIyWlLk6GJQsqaUBKTNV-1">
          <mxGeometry x="90" y="180" width="150" height="110" as="geometry" />
        </mxCell>
        <mxCell id="S0K5XQlQ_JxFuEXlwwww-1" value="&lt;font style=&quot;font-size: 18px;&quot;&gt;Elastic Search 服务&lt;/font&gt;" style="shape=datastore;whiteSpace=wrap;html=1;" vertex="1" parent="WIyWlLk6GJQsqaUBKTNV-1">
          <mxGeometry x="80" y="410" width="170" height="110" as="geometry" />
        </mxCell>
        <mxCell id="S0K5XQlQ_JxFuEXlwwww-24" value="" style="group" vertex="1" connectable="0" parent="WIyWlLk6GJQsqaUBKTNV-1">
          <mxGeometry x="320" y="180" width="500" height="345" as="geometry" />
        </mxCell>
        <mxCell id="S0K5XQlQ_JxFuEXlwwww-25" style="edgeStyle=orthogonalEdgeStyle;rounded=0;orthogonalLoop=1;jettySize=auto;html=1;fontSize=18;" edge="1" parent="S0K5XQlQ_JxFuEXlwwww-24" source="S0K5XQlQ_JxFuEXlwwww-3" target="S0K5XQlQ_JxFuEXlwwww-4">
          <mxGeometry relative="1" as="geometry" />
        </mxCell>
        <mxCell id="S0K5XQlQ_JxFuEXlwwww-3" value="索引管理" style="rounded=1;whiteSpace=wrap;html=1;fontSize=18;arcSize=25;movable=1;resizable=1;rotatable=1;deletable=1;editable=1;connectable=1;" vertex="1" parent="S0K5XQlQ_JxFuEXlwwww-24">
          <mxGeometry x="20" y="135" width="200" height="60" as="geometry" />
        </mxCell>
        <mxCell id="S0K5XQlQ_JxFuEXlwwww-4" value="任务管理" style="rounded=1;whiteSpace=wrap;html=1;fontSize=18;movable=1;resizable=1;rotatable=1;deletable=1;editable=1;connectable=1;" vertex="1" parent="S0K5XQlQ_JxFuEXlwwww-24">
          <mxGeometry x="170" y="255" width="200" height="60" as="geometry" />
        </mxCell>
        <mxCell id="S0K5XQlQ_JxFuEXlwwww-19" style="edgeStyle=orthogonalEdgeStyle;rounded=0;orthogonalLoop=1;jettySize=auto;html=1;exitX=0.5;exitY=1;exitDx=0;exitDy=0;fontSize=18;movable=1;resizable=1;rotatable=1;deletable=1;editable=1;connectable=1;" edge="1" parent="S0K5XQlQ_JxFuEXlwwww-24" source="S0K5XQlQ_JxFuEXlwwww-10">
          <mxGeometry relative="1" as="geometry">
            <mxPoint x="400" y="45" as="targetPoint" />
          </mxGeometry>
        </mxCell>
        <mxCell id="S0K5XQlQ_JxFuEXlwwww-21" style="edgeStyle=orthogonalEdgeStyle;rounded=0;orthogonalLoop=1;jettySize=auto;html=1;exitX=0.5;exitY=1;exitDx=0;exitDy=0;fontSize=18;movable=1;resizable=1;rotatable=1;deletable=1;editable=1;connectable=1;" edge="1" parent="S0K5XQlQ_JxFuEXlwwww-24" source="S0K5XQlQ_JxFuEXlwwww-10">
          <mxGeometry relative="1" as="geometry">
            <mxPoint x="400" y="45" as="targetPoint" />
          </mxGeometry>
        </mxCell>
        <mxCell id="S0K5XQlQ_JxFuEXlwwww-15" style="edgeStyle=orthogonalEdgeStyle;rounded=0;orthogonalLoop=1;jettySize=auto;html=1;exitX=0.5;exitY=1;exitDx=0;exitDy=0;fontSize=18;movable=1;resizable=1;rotatable=1;deletable=1;editable=1;connectable=1;" edge="1" parent="S0K5XQlQ_JxFuEXlwwww-24" source="S0K5XQlQ_JxFuEXlwwww-13" target="S0K5XQlQ_JxFuEXlwwww-4">
          <mxGeometry relative="1" as="geometry">
            <Array as="points">
              <mxPoint x="400" y="225" />
              <mxPoint x="270" y="225" />
            </Array>
          </mxGeometry>
        </mxCell>
        <mxCell id="S0K5XQlQ_JxFuEXlwwww-13" value="数据对象管理" style="rounded=1;whiteSpace=wrap;html=1;fontSize=18;movable=1;resizable=1;rotatable=1;deletable=1;editable=1;connectable=1;" vertex="1" parent="S0K5XQlQ_JxFuEXlwwww-24">
          <mxGeometry x="300" y="60" width="200" height="60" as="geometry" />
        </mxCell>
        <mxCell id="S0K5XQlQ_JxFuEXlwwww-34" value="" style="group" vertex="1" connectable="0" parent="WIyWlLk6GJQsqaUBKTNV-1">
          <mxGeometry x="960" y="267.5" width="230" height="122.5" as="geometry" />
        </mxCell>
        <mxCell id="S0K5XQlQ_JxFuEXlwwww-23" value="数据源" style="shape=datastore;whiteSpace=wrap;html=1;fontSize=18;" vertex="1" parent="S0K5XQlQ_JxFuEXlwwww-34">
          <mxGeometry width="200" height="92.5" as="geometry" />
        </mxCell>
        <mxCell id="S0K5XQlQ_JxFuEXlwwww-31" value="数据源" style="shape=datastore;whiteSpace=wrap;html=1;fontSize=18;" vertex="1" parent="S0K5XQlQ_JxFuEXlwwww-34">
          <mxGeometry x="10" y="10" width="200" height="92.5" as="geometry" />
        </mxCell>
        <mxCell id="S0K5XQlQ_JxFuEXlwwww-32" value="数据源" style="shape=datastore;whiteSpace=wrap;html=1;fontSize=18;" vertex="1" parent="S0K5XQlQ_JxFuEXlwwww-34">
          <mxGeometry x="20" y="20" width="200" height="92.5" as="geometry" />
        </mxCell>
        <mxCell id="S0K5XQlQ_JxFuEXlwwww-33" value="数据源" style="shape=datastore;whiteSpace=wrap;html=1;fontSize=18;" vertex="1" parent="S0K5XQlQ_JxFuEXlwwww-34">
          <mxGeometry x="30" y="30" width="200" height="92.5" as="geometry" />
        </mxCell>
        <mxCell id="S0K5XQlQ_JxFuEXlwwww-36" style="edgeStyle=orthogonalEdgeStyle;rounded=0;orthogonalLoop=1;jettySize=auto;html=1;entryX=1;entryY=0.5;entryDx=0;entryDy=0;fontSize=18;" edge="1" parent="WIyWlLk6GJQsqaUBKTNV-1" source="S0K5XQlQ_JxFuEXlwwww-33" target="S0K5XQlQ_JxFuEXlwwww-4">
          <mxGeometry relative="1" as="geometry">
            <Array as="points">
              <mxPoint x="1090" y="465" />
            </Array>
          </mxGeometry>
        </mxCell>
        <mxCell id="S0K5XQlQ_JxFuEXlwwww-37" style="edgeStyle=orthogonalEdgeStyle;rounded=0;orthogonalLoop=1;jettySize=auto;html=1;entryX=1;entryY=0.5;entryDx=0;entryDy=0;fontSize=18;" edge="1" parent="WIyWlLk6GJQsqaUBKTNV-1" source="S0K5XQlQ_JxFuEXlwwww-4" target="S0K5XQlQ_JxFuEXlwwww-1">
          <mxGeometry relative="1" as="geometry" />
        </mxCell>
        <mxCell id="S0K5XQlQ_JxFuEXlwwww-38" style="edgeStyle=orthogonalEdgeStyle;rounded=0;orthogonalLoop=1;jettySize=auto;html=1;entryX=0.5;entryY=0;entryDx=0;entryDy=0;fontSize=18;" edge="1" parent="WIyWlLk6GJQsqaUBKTNV-1" source="S0K5XQlQ_JxFuEXlwwww-3" target="S0K5XQlQ_JxFuEXlwwww-1">
          <mxGeometry relative="1" as="geometry" />
        </mxCell>
        <mxCell id="S0K5XQlQ_JxFuEXlwwww-39" style="edgeStyle=orthogonalEdgeStyle;rounded=0;orthogonalLoop=1;jettySize=auto;html=1;entryX=0.5;entryY=1;entryDx=0;entryDy=0;fontSize=18;" edge="1" parent="WIyWlLk6GJQsqaUBKTNV-1" source="S0K5XQlQ_JxFuEXlwwww-3" target="S0K5XQlQ_JxFuEXlwwww-0">
          <mxGeometry relative="1" as="geometry" />
        </mxCell>
        <mxCell id="S0K5XQlQ_JxFuEXlwwww-41" style="edgeStyle=orthogonalEdgeStyle;rounded=0;orthogonalLoop=1;jettySize=auto;html=1;entryX=1;entryY=0.5;entryDx=0;entryDy=0;fontSize=18;" edge="1" parent="WIyWlLk6GJQsqaUBKTNV-1" source="S0K5XQlQ_JxFuEXlwwww-10" target="S0K5XQlQ_JxFuEXlwwww-0">
          <mxGeometry relative="1" as="geometry" />
        </mxCell>
        <mxCell id="S0K5XQlQ_JxFuEXlwwww-10" value="数据源管理" style="rounded=1;whiteSpace=wrap;html=1;fontSize=18;movable=1;resizable=1;rotatable=1;deletable=1;editable=1;connectable=1;" vertex="1" parent="WIyWlLk6GJQsqaUBKTNV-1">
          <mxGeometry x="620" y="130" width="200" height="60" as="geometry" />
        </mxCell>
        <mxCell id="S0K5XQlQ_JxFuEXlwwww-22" value="" style="edgeStyle=orthogonalEdgeStyle;rounded=0;orthogonalLoop=1;jettySize=auto;html=1;fontSize=18;movable=1;resizable=1;rotatable=1;deletable=1;editable=1;connectable=1;" edge="1" parent="WIyWlLk6GJQsqaUBKTNV-1" source="S0K5XQlQ_JxFuEXlwwww-10" target="S0K5XQlQ_JxFuEXlwwww-13">
          <mxGeometry relative="1" as="geometry" />
        </mxCell>
        <mxCell id="S0K5XQlQ_JxFuEXlwwww-40" style="edgeStyle=orthogonalEdgeStyle;rounded=0;orthogonalLoop=1;jettySize=auto;html=1;fontSize=18;" edge="1" parent="WIyWlLk6GJQsqaUBKTNV-1" source="S0K5XQlQ_JxFuEXlwwww-13" target="S0K5XQlQ_JxFuEXlwwww-0">
          <mxGeometry relative="1" as="geometry" />
        </mxCell>
      </root>
    </mxGraphModel>
  </diagram>
</mxfile>
